<svg xmlns="http://www.w3.org/2000/svg" width="139.322" height="17.73" viewBox="0 0 139.322 17.73">
  <path id="パス_1" data-name="パス 1" d="M1.676-.047a6.229,6.229,0,0,0,.135-.609q.064-.363.111-.9t.07-1.283q.023-.744.023-1.74v-7.629q0-1-.023-1.74t-.07-1.289q-.047-.545-.111-.908a6.229,6.229,0,0,0-.135-.609V-16.8H4.488v.047a6.229,6.229,0,0,0-.135.609q-.064.363-.105.908t-.07,1.289q-.029.744-.029,1.74V-9.6l6.844-5.59q1.148-.937,1.148-1.617h3.293v.047a4.457,4.457,0,0,0-1.4.627A15.917,15.917,0,0,0,12.527-15L6.48-9.937l7.277,7.992q.457.469.779.779t.568.516a5.048,5.048,0,0,0,.451.34q.205.135.428.264V0H12.551a1.854,1.854,0,0,0-.158-.27q-.111-.164-.258-.34t-.316-.363q-.17-.187-.322-.352L4.148-9.387v4.8q0,1,.029,1.74t.07,1.283q.041.539.105.9a6.229,6.229,0,0,0,.135.609V0H1.676Zm20.5-7.371q0-1-.029-1.74t-.07-1.283q-.041-.539-.105-.9a6.229,6.229,0,0,0-.135-.609V-12h2.707v.047a5.391,5.391,0,0,0-.129.609q-.059.363-.105.9t-.07,1.283q-.023.744-.023,1.74v2.836q0,1,.023,1.74t.07,1.283q.047.539.105.9a5.391,5.391,0,0,0,.129.609V0H21.839V-.047a6.229,6.229,0,0,0,.135-.609q.064-.363.105-.9t.07-1.283q.029-.744.029-1.74Zm-.246-8.133a1.2,1.2,0,0,1,.1-.486,1.336,1.336,0,0,1,.264-.4,1.212,1.212,0,0,1,.393-.27,1.233,1.233,0,0,1,.5-.1,1.233,1.233,0,0,1,.5.1,1.282,1.282,0,0,1,.4.27,1.282,1.282,0,0,1,.27.4,1.2,1.2,0,0,1,.1.486,1.225,1.225,0,0,1-.363.9,1.225,1.225,0,0,1-.9.363,1.233,1.233,0,0,1-.5-.1,1.212,1.212,0,0,1-.393-.27,1.336,1.336,0,0,1-.264-.4A1.233,1.233,0,0,1,21.933-15.551ZM32.7-7.418q0-1-.029-1.74t-.07-1.283q-.041-.539-.105-.9a6.229,6.229,0,0,0-.135-.609V-12h2.707v.047a4.054,4.054,0,0,0-.158.656,9.656,9.656,0,0,0-.1,1q.434-.363.9-.715a8.029,8.029,0,0,1,.961-.621,5.755,5.755,0,0,1,1-.434,3.329,3.329,0,0,1,1.025-.164,4.506,4.506,0,0,1,.551.029,2.888,2.888,0,0,1,.422.082,2.865,2.865,0,0,1,.34.117l.293.123-.574,2.238-.2-.047A1.551,1.551,0,0,0,39-10.518a1.639,1.639,0,0,0-1.055-.311,2.474,2.474,0,0,0-.762.129,4.532,4.532,0,0,0-.809.357,8.044,8.044,0,0,0-.82.527q-.41.3-.8.627-.023.34-.023.738v3.867q0,1,.023,1.74t.07,1.283q.047.539.105.9a5.391,5.391,0,0,0,.129.609V0H32.358V-.047a6.229,6.229,0,0,0,.135-.609q.064-.363.105-.9t.07-1.283q.029-.744.029-1.74ZM45.49-3.457a3.232,3.232,0,0,1,.381-1.605,3.739,3.739,0,0,1,1.014-1.16A5.544,5.544,0,0,1,48.326-7,10.837,10.837,0,0,1,50-7.471a14.729,14.729,0,0,1,1.711-.234q.844-.064,1.547-.076v-.6a4.009,4.009,0,0,0-.2-1.336,2.49,2.49,0,0,0-.562-.932,2.28,2.28,0,0,0-.873-.551,3.313,3.313,0,0,0-1.119-.182,4.915,4.915,0,0,0-.832.07,4.709,4.709,0,0,0-.85.234,6.185,6.185,0,0,0-.926.445,9.684,9.684,0,0,0-1.049.715l-.117-.07.8-1.652a5.9,5.9,0,0,1,.762-.287,7.2,7.2,0,0,1,.762-.182,7.415,7.415,0,0,1,.791-.1q.4-.029.85-.029a6.529,6.529,0,0,1,2.1.3,3.909,3.909,0,0,1,1.43.82A3.147,3.147,0,0,1,55.041-9.9,4.274,4.274,0,0,1,55.3-8.4v3.82q0,1,.029,1.74t.07,1.283q.041.539.105.9a6.229,6.229,0,0,0,.135.609V0h-2.59V-.047a2.428,2.428,0,0,0,.088-.422q.029-.234.053-.562a6.054,6.054,0,0,1-.58.434,4.641,4.641,0,0,1-.762.4A5.209,5.209,0,0,1,50.9.1a5.477,5.477,0,0,1-1.143.111A4.7,4.7,0,0,1,46.6-.744,3.38,3.38,0,0,1,45.49-3.457Zm7.77-3.41a20.232,20.232,0,0,0-2.051.123,5.6,5.6,0,0,0-1.74.463,2.951,2.951,0,0,0-1.207,1,2.978,2.978,0,0,0-.451,1.729A2.945,2.945,0,0,0,48.5-1.441a2.511,2.511,0,0,0,1.91.727,3.155,3.155,0,0,0,1.025-.158,3.48,3.48,0,0,0,.82-.4,2.969,2.969,0,0,0,.6-.527,2.58,2.58,0,0,0,.375-.557q.023-.445.023-.99V-6.867Zm9.534,1.512V-7.031h7.922v1.676ZM86.1-7.9a4.972,4.972,0,0,0-.158-1.336,2.566,2.566,0,0,0-.457-.932,1.867,1.867,0,0,0-.721-.551,2.347,2.347,0,0,0-.937-.182,2.571,2.571,0,0,0-.785.141,5.917,5.917,0,0,0-.9.381,8.943,8.943,0,0,0-.926.557,8.83,8.83,0,0,0-.873.68q-.023.375-.023.8v3.756q0,1,.023,1.74t.07,1.283q.047.539.105.9a5.391,5.391,0,0,0,.129.609V0H77.941V-.047a6.229,6.229,0,0,0,.135-.609q.064-.363.105-.9t.07-1.283q.029-.744.029-1.74V-7.418q0-1-.029-1.74t-.07-1.283q-.041-.539-.105-.9a6.229,6.229,0,0,0-.135-.609V-12h2.707v.047a3.451,3.451,0,0,0-.146.686q-.053.416-.111,1.049.469-.375,1.008-.738a9.6,9.6,0,0,1,1.107-.645,7.575,7.575,0,0,1,1.143-.457,3.868,3.868,0,0,1,1.137-.176,3.663,3.663,0,0,1,1.184.176,3.017,3.017,0,0,1,.9.48,2.9,2.9,0,0,1,.65.715,3.451,3.451,0,0,1,.4.879q.48-.41,1.049-.814a10.156,10.156,0,0,1,1.172-.721,7.611,7.611,0,0,1,1.23-.516,4.032,4.032,0,0,1,1.225-.2,3.471,3.471,0,0,1,1.553.316,2.984,2.984,0,0,1,1.043.832,3.3,3.3,0,0,1,.586,1.178,5.05,5.05,0,0,1,.182,1.342v3.984q0,1,.023,1.74t.07,1.283q.047.539.111.9a6.229,6.229,0,0,0,.135.609V0H93.586V-.047a6.229,6.229,0,0,0,.135-.609q.064-.363.111-.9t.07-1.283q.023-.744.023-1.74V-7.9a3.451,3.451,0,0,0-.621-2.273,2.078,2.078,0,0,0-1.664-.727,2.655,2.655,0,0,0-.8.141,5.7,5.7,0,0,0-.908.387,9.232,9.232,0,0,0-.937.568,9.093,9.093,0,0,0-.879.686,1.708,1.708,0,0,1,.023.281v4.254q0,1,.029,1.74t.07,1.283q.041.539.105.9a6.229,6.229,0,0,0,.135.609V0H85.77V-.047A5.391,5.391,0,0,0,85.9-.656q.059-.363.105-.9t.07-1.283q.023-.744.023-1.74ZM109.542.211A7.128,7.128,0,0,1,107.1-.2a5.676,5.676,0,0,1-1.98-1.2,5.589,5.589,0,0,1-1.33-1.957,6.875,6.875,0,0,1-.486-2.666,6.642,6.642,0,0,1,.445-2.455,6.062,6.062,0,0,1,1.23-1.963,5.688,5.688,0,0,1,1.834-1.3,5.493,5.493,0,0,1,2.268-.469,5.927,5.927,0,0,1,2.238.416,5.06,5.06,0,0,1,1.787,1.207,5.7,5.7,0,0,1,1.2,1.957,8.035,8.035,0,0,1,.475,2.654q-1.324-.023-2.648-.035t-2.754-.012q-1.02,0-1.986.012t-1.74.035a9.053,9.053,0,0,0,.381,2.2,5.283,5.283,0,0,0,.855,1.682,3.7,3.7,0,0,0,1.324,1.072,4.017,4.017,0,0,0,1.764.375A5.043,5.043,0,0,0,111.259-.8a4.494,4.494,0,0,0,1.1-.439,4.251,4.251,0,0,0,.879-.662,4.238,4.238,0,0,0,.656-.826l.141.07-.867,2.086a7.264,7.264,0,0,1-1.512.557A8.476,8.476,0,0,1,109.542.211Zm-1.559-7.148q1.172,0,2.35-.006t2.139-.041a7.687,7.687,0,0,0-.4-1.828,4.684,4.684,0,0,0-.75-1.371,3.189,3.189,0,0,0-1.078-.867,3.071,3.071,0,0,0-1.371-.3,2.64,2.64,0,0,0-1.248.3,2.954,2.954,0,0,0-.99.861,4.58,4.58,0,0,0-.68,1.377,7.238,7.238,0,0,0-.3,1.857q.527.023,1.113.023Zm14.116-6q0-1-.029-1.74T122-15.961q-.041-.539-.105-.9a6.229,6.229,0,0,0-.135-.609v-.047h2.707v.047a5.391,5.391,0,0,0-.129.609q-.059.363-.105.9t-.07,1.283q-.023.744-.023,1.74V-7.1l3.832-3.434q1.008-.879,1.008-1.465H131.7v.047a3.3,3.3,0,0,0-.58.24,4.737,4.737,0,0,0-.551.346q-.275.2-.574.451t-.65.568l-3.434,3.129,4.711,5.566q.211.258.457.521t.492.486a4.964,4.964,0,0,0,.48.387,1.294,1.294,0,0,0,.434.211V0h-3.4a1.455,1.455,0,0,0-.158-.633,4.581,4.581,0,0,0-.568-.832L124.139-6.48v1.9q0,1,.023,1.74t.07,1.283q.047.539.105.9a5.391,5.391,0,0,0,.129.609V0H121.76V-.047a6.229,6.229,0,0,0,.135-.609q.064-.363.105-.9t.07-1.283q.029-.744.029-1.74Zm16.53,5.52q0-1-.029-1.74t-.07-1.283q-.041-.539-.105-.9a6.229,6.229,0,0,0-.135-.609V-12H141v.047a5.391,5.391,0,0,0-.129.609q-.059.363-.105.9t-.07,1.283q-.023.744-.023,1.74v2.836q0,1,.023,1.74t.07,1.283q.047.539.105.9A5.391,5.391,0,0,0,141-.047V0h-2.707V-.047a6.229,6.229,0,0,0,.135-.609q.064-.363.105-.9t.07-1.283q.029-.744.029-1.74Zm-.246-8.133a1.2,1.2,0,0,1,.1-.486,1.336,1.336,0,0,1,.264-.4,1.212,1.212,0,0,1,.393-.27,1.233,1.233,0,0,1,.5-.1,1.233,1.233,0,0,1,.5.1,1.282,1.282,0,0,1,.4.27,1.282,1.282,0,0,1,.27.4,1.2,1.2,0,0,1,.1.486,1.225,1.225,0,0,1-.363.9,1.225,1.225,0,0,1-.9.363,1.233,1.233,0,0,1-.5-.1,1.212,1.212,0,0,1-.393-.27,1.336,1.336,0,0,1-.264-.4A1.233,1.233,0,0,1,138.384-15.551Z" transform="translate(-1.676 17.52)"/>
</svg>
